<svg xmlns="http://www.w3.org/2000/svg" viewBox="0 0 1920 1080" width="1920" height="1080">
  <defs>
    <linearGradient id="sky" x1="0" y1="0" x2="0" y2="1">
      <stop offset="0" stop-color="#4B93C8"/>
      <stop offset="0.62" stop-color="#D9F3FF"/>
      <stop offset="1" stop-color="#FFF7E5"/>
    </linearGradient>
    <filter id="softShadow"><feDropShadow dx="0" dy="10" stdDeviation="12" flood-color="#1C2632" flood-opacity="0.22"/></filter>
  </defs>
  <rect width="1920" height="1080" fill="url(#sky)"/>
  <path d="M0 760 C260 650 480 810 760 710 C1050 600 1290 760 1540 680 C1740 620 1850 660 1920 620 L1920 1080 L0 1080 Z" fill="#FFFFFF" opacity="0.72"/>
  <path d="M250 610 L450 450 L650 610 Z" fill="#6AA382" opacity="0.78"/>
  <path d="M1180 620 L1410 390 L1660 620 Z" fill="#5B8FA8" opacity="0.66"/>
  <rect x="96" y="64" width="250" height="70" rx="20" fill="#FFFFFF" opacity="0.75"/>
  <text x="126" y="110" font-family="Arial" font-size="30" font-weight="700" fill="#1C2632">Coins  12,450</text>
  <circle cx="1790" cy="98" r="42" fill="#FFFFFF" opacity="0.8"/>
  <text x="1773" y="110" font-family="Arial" font-size="34" font-weight="700" fill="#1C2632">⚙</text>
  <g filter="url(#softShadow)">
    <rect x="520" y="120" width="880" height="150" rx="22" fill="#FFF7E5" opacity="0.92"/>
    <text x="960" y="183" text-anchor="middle" font-family="Arial" font-size="64" font-weight="800" fill="#1C2632">PHI KIEM</text>
    <text x="960" y="244" text-anchor="middle" font-family="Arial" font-size="54" font-weight="800" fill="#49C7A3">SONG HANH</text>
  </g>
  <g transform="translate(430 360)">
    <path d="M0 250 C160 80 340 60 500 230" fill="none" stroke="#41D9FF" stroke-width="18" stroke-linecap="round" opacity="0.85"/>
    <path d="M40 270 L460 200" stroke="#F4C95D" stroke-width="12" stroke-linecap="round"/>
    <circle cx="240" cy="120" r="54" fill="#41D9FF"/>
    <rect x="186" y="170" width="108" height="170" rx="36" fill="#FFFFFF"/>
    <text x="240" y="378" text-anchor="middle" font-family="Arial" font-size="28" font-weight="700" fill="#1C2632">Lang Phong</text>
  </g>
  <g transform="translate(990 360)">
    <path d="M0 230 C160 70 340 90 500 250" fill="none" stroke="#E94F72" stroke-width="18" stroke-linecap="round" opacity="0.85"/>
    <path d="M40 210 L470 280" stroke="#8D6CFF" stroke-width="12" stroke-linecap="round"/>
    <circle cx="250" cy="120" r="54" fill="#E94F72"/>
    <rect x="196" y="170" width="108" height="170" rx="36" fill="#FFFFFF"/>
    <text x="250" y="378" text-anchor="middle" font-family="Arial" font-size="28" font-weight="700" fill="#1C2632">Nguyet Dao</text>
  </g>
  <g filter="url(#softShadow)" font-family="Arial" font-weight="800" font-size="36">
    <rect x="780" y="720" width="360" height="86" rx="26" fill="#F4C95D"/>
    <text x="960" y="775" text-anchor="middle" fill="#1C2632">PLAY</text>
    <rect x="780" y="824" width="360" height="74" rx="22" fill="#FFFFFF" opacity="0.9"/>
    <text x="960" y="873" text-anchor="middle" fill="#1C2632">HEROES</text>
    <rect x="780" y="914" width="360" height="74" rx="22" fill="#FFFFFF" opacity="0.74"/>
    <text x="960" y="963" text-anchor="middle" fill="#1C2632">SETTINGS</text>
  </g>
</svg>

