<svg xmlns="http://www.w3.org/2000/svg" viewBox="0 0 1920 1080" width="1920" height="1080">
  <defs>
    <linearGradient id="bg" x1="0" y1="0" x2="0" y2="1">
      <stop offset="0" stop-color="#4B93C8"/>
      <stop offset="1" stop-color="#D9F3FF"/>
    </linearGradient>
    <filter id="shadow"><feDropShadow dx="0" dy="6" stdDeviation="8" flood-color="#1C2632" flood-opacity="0.28"/></filter>
  </defs>
  <rect width="1920" height="1080" fill="url(#bg)"/>
  <path d="M0 760 C280 680 440 790 720 720 C1080 625 1280 760 1580 680 C1760 630 1860 660 1920 640 L1920 1080 L0 1080 Z" fill="#FFFFFF" opacity="0.62"/>
  <path d="M960 1060 L760 360 L1160 360 Z" fill="#FFF7E5" opacity="0.24"/>
  <g opacity="0.88">
    <rect x="735" y="280" width="150" height="260" rx="18" fill="none" stroke="#41D9FF" stroke-width="14"/>
    <path d="M760 308 L860 512" stroke="#41D9FF" stroke-width="8"/>
    <text x="810" y="570" text-anchor="middle" font-family="Arial" font-size="24" font-weight="700" fill="#1C2632">PHYSICAL</text>
    <rect x="1060" y="300" width="170" height="230" rx="85" fill="none" stroke="#E94F72" stroke-width="14"/>
    <circle cx="1145" cy="415" r="58" fill="none" stroke="#8D6CFF" stroke-width="8"/>
    <text x="1145" y="570" text-anchor="middle" font-family="Arial" font-size="24" font-weight="700" fill="#1C2632">SPIRIT</text>
  </g>
  <g filter="url(#shadow)">
    <path d="M790 780 C900 720 1010 720 1130 780" fill="none" stroke="#41D9FF" stroke-width="20" stroke-linecap="round"/>
    <path d="M805 802 L1120 752" stroke="#F4C95D" stroke-width="12" stroke-linecap="round"/>
    <circle cx="960" cy="705" r="48" fill="#41D9FF"/>
    <rect x="910" y="750" width="100" height="130" rx="34" fill="#FFFFFF"/>
  </g>
  <g font-family="Arial" font-weight="800" filter="url(#shadow)">
    <rect x="78" y="54" width="280" height="76" rx="22" fill="#FFFFFF" opacity="0.88"/>
    <text x="110" y="105" font-size="34" fill="#F05A45">♥ ♥ ♥</text>
    <circle cx="420" cy="92" r="42" fill="#FFFFFF" opacity="0.85"/>
    <text x="407" y="105" font-size="32" fill="#1C2632">Ⅱ</text>
    <rect x="770" y="52" width="380" height="78" rx="24" fill="#FFFFFF" opacity="0.88"/>
    <text x="960" y="102" text-anchor="middle" font-size="34" fill="#1C2632">SCORE  18,420</text>
    <rect x="1180" y="60" width="170" height="62" rx="20" fill="#49C7A3"/>
    <text x="1265" y="101" text-anchor="middle" font-size="30" fill="#FFFFFF">x18</text>
  </g>
  <g filter="url(#shadow)" font-family="Arial" font-weight="700">
    <rect x="82" y="380" width="118" height="118" rx="24" fill="#41D9FF"/>
    <text x="141" y="448" text-anchor="middle" font-size="42" fill="#FFFFFF">LP</text>
    <rect x="82" y="520" width="118" height="118" rx="24" fill="#E94F72" opacity="0.72"/>
    <text x="141" y="588" text-anchor="middle" font-size="42" fill="#FFFFFF">ND</text>
  </g>
  <g filter="url(#shadow)" font-family="Arial" font-weight="800">
    <circle cx="1720" cy="780" r="78" fill="#FFFFFF" opacity="0.9"/>
    <text x="1720" y="792" text-anchor="middle" font-size="30" fill="#1C2632">SWITCH</text>
    <circle cx="1600" cy="930" r="70" fill="#F4C95D"/>
    <text x="1600" y="942" text-anchor="middle" font-size="29" fill="#1C2632">SKILL</text>
  </g>
  <g filter="url(#shadow)">
    <rect x="680" y="940" width="560" height="34" rx="17" fill="#1C2632" opacity="0.55"/>
    <rect x="690" y="948" width="360" height="18" rx="9" fill="#49C7A3"/>
    <text x="960" y="925" text-anchor="middle" font-family="Arial" font-size="28" font-weight="800" fill="#1C2632">SONG HANH</text>
  </g>
</svg>

